<?xml version="1.0" standalone="no"?>
<!DOCTYPE svg PUBLIC "-//W3C//DTD SVG 20010904//EN"
 "http://www.w3.org/TR/2001/REC-SVG-20010904/DTD/svg10.dtd">
<svg version="1.0" xmlns="http://www.w3.org/2000/svg"
 width="439.000000pt" height="439.000000pt" viewBox="0 0 439.000000 439.000000"
 preserveAspectRatio="xMidYMid meet">
<metadata>
Created by potrace 1.14, written by Peter Selinger 2001-2017
</metadata>
<g transform="translate(0.000000,439.000000) scale(0.100000,-0.100000)"
fill="#000000" stroke="none">
<path d="M1615 3504 c-38 -8 -113 -29 -165 -48 -52 -19 -117 -36 -145 -39 -51
-4 -205 -71 -205 -88 0 -6 9 -5 20 1 11 6 20 9 20 6 0 -2 -55 -34 -122 -72
-104 -57 -312 -189 -422 -266 -16 -12 -26 -16 -22 -9 25 40 -68 -35 -178 -145
-176 -175 -222 -293 -184 -471 41 -195 141 -317 305 -371 34 -11 70 -25 81
-31 11 -6 49 -13 84 -16 159 -13 187 -15 248 -21 36 -3 74 -7 85 -9 11 -1 56
-6 98 -10 51 -5 77 -11 74 -19 -2 -6 -10 -11 -18 -11 -22 -1 -60 -25 -54 -34
5 -9 -64 -61 -82 -61 -5 0 -39 -21 -75 -47 -36 -27 -90 -66 -122 -88 -31 -22
-81 -59 -111 -82 -29 -23 -55 -38 -57 -32 -2 5 -20 -7 -40 -27 -21 -20 -35
-40 -32 -45 3 -5 0 -8 -7 -7 -6 2 -14 -3 -17 -11 -3 -9 0 -11 7 -6 9 5 9 1 -1
-14 -7 -12 -18 -21 -25 -21 -17 0 -36 -67 -37 -130 -1 -63 24 -123 60 -147 28
-18 110 -20 179 -3 28 6 57 13 66 15 109 22 376 139 424 184 17 16 62 48 100
71 131 79 212 178 222 273 7 65 -7 110 -53 178 -19 28 -34 55 -34 60 0 5 17
16 38 24 65 28 303 116 405 150 102 34 116 48 35 35 -27 -4 -48 -3 -48 2 0 4
10 8 23 9 38 0 112 11 117 16 10 10 -190 -6 -208 -17 -13 -8 -9 -9 21 -5 20 3
37 1 37 -3 0 -5 -6 -9 -12 -9 -12 0 -39 -4 -123 -19 -16 -3 -47 -9 -69 -15
-21 -6 -40 -8 -42 -6 -3 2 17 10 43 17 31 9 41 15 28 17 -11 2 -60 -10 -110
-27 -49 -17 -97 -32 -105 -34 -16 -4 -27 -7 -115 -41 -54 -21 -63 -21 -105 -9
-63 18 -185 42 -250 49 -30 3 -71 8 -90 10 -19 2 -66 7 -105 10 -150 12 -205
22 -303 52 -102 32 -189 92 -228 158 -24 41 -26 54 -22 114 8 105 58 192 182
317 100 99 239 213 346 281 30 20 98 64 150 99 113 74 179 110 314 171 232
105 418 149 646 154 113 3 128 1 140 -20 13 -25 -4 -65 -69 -159 -54 -77 -59
-88 -38 -76 7 4 9 3 4 -2 -5 -5 -12 -9 -15 -9 -13 0 -32 -16 -32 -26 0 -6 6
-7 13 -3 7 4 9 3 4 -2 -5 -5 -14 -9 -20 -9 -7 -1 -10 -7 -9 -15 2 -8 0 -12 -4
-7 -4 4 -23 -7 -41 -25 -32 -31 -45 -57 -21 -42 7 4 8 3 4 -5 -4 -6 -11 -9
-15 -6 -10 5 -35 -22 -44 -48 -4 -10 -11 -16 -16 -13 -8 5 -49 -37 -138 -141
-28 -33 -222 -204 -286 -252 -41 -32 -63 -42 -79 -38 -49 13 -65 -50 -28 -111
11 -18 20 -41 20 -51 0 -11 15 -29 34 -41 24 -14 33 -26 30 -38 -5 -14 -4 -14
4 -3 14 19 1 43 -32 61 -34 18 -33 30 1 21 19 -5 32 -2 43 8 9 9 37 32 61 51
107 86 368 347 618 620 63 69 130 171 145 221 12 41 12 52 -4 98 -28 85 -85
133 -186 156 -67 16 -272 15 -359 -1z m-385 -184 c-8 -5 -19 -10 -25 -10 -5 0
-3 5 5 10 8 5 20 10 25 10 6 0 3 -5 -5 -10z m-90 -34 c0 -2 -44 -28 -97 -56
-312 -167 -556 -358 -709 -555 -55 -72 -60 -77 -44 -45 7 14 28 44 46 67 41
50 44 65 7 32 -15 -13 -10 -4 12 21 62 69 204 195 302 267 174 127 319 209
481 272 1 1 2 -1 2 -3z m-55 -76 c-3 -5 -13 -10 -21 -10 -8 0 -12 5 -9 10 3 6
13 10 21 10 8 0 12 -4 9 -10z m885 -140 c-17 -22 -37 -43 -43 -47 -6 -4 6 14
27 40 21 26 40 47 43 47 3 0 -10 -18 -27 -40z m-90 -103 l-34 -32 30 36 c16
20 31 34 33 32 3 -2 -10 -18 -29 -36z m-50 -50 c0 -2 -10 -12 -22 -23 l-23
-19 19 23 c18 21 26 27 26 19z m-1415 -207 c3 -5 1 -10 -4 -10 -6 0 -11 5 -11
10 0 6 2 10 4 10 3 0 8 -4 11 -10z m880 -829 c-6 -4 -41 -25 -78 -45 -38 -21
-98 -58 -134 -84 -36 -26 -68 -47 -71 -47 -8 -1 -39 -20 -137 -84 -91 -60
-107 -68 -70 -36 39 35 326 225 407 270 58 32 106 47 83 26z m-145 -16 c-7 -8
-17 -15 -23 -15 -6 0 -2 7 9 15 25 19 30 19 14 0z m268 -19 c15 -8 36 -23 46
-35 17 -18 18 -26 8 -59 -7 -20 -29 -59 -50 -87 -68 -90 -341 -295 -375 -282
-8 3 -20 1 -28 -5 -11 -7 -9 -8 6 -4 17 5 16 3 -5 -14 l-25 -21 39 16 c22 8
41 13 44 10 3 -3 0 -5 -6 -5 -7 0 -12 -6 -12 -14 0 -21 -234 -108 -325 -121
-27 -4 -60 -8 -73 -10 -12 -2 -20 0 -17 4 2 5 23 11 45 15 22 3 40 10 40 15 0
6 -12 7 -27 4 -137 -28 -120 32 53 195 105 100 195 167 385 286 218 136 225
139 277 112z m-131 -399 c-20 -18 -56 -42 -80 -55 -23 -12 -32 -15 -19 -6 135
99 166 118 99 61z m-172 -67 c-3 -5 -12 -10 -18 -10 -7 0 -6 4 3 10 19 12 23
12 15 0z m-86 -95 c-37 -20 -136 -58 -126 -49 10 10 128 62 142 63 6 0 -2 -6
-16 -14z"/>
<path d="M394 2779 c-16 -16 -22 -28 -14 -24 13 5 56 55 47 55 -2 0 -16 -14
-33 -31z"/>
<path d="M770 2324 c4 -34 2 -55 -4 -58 -6 -2 -2 -5 9 -5 18 -1 20 4 17 57 -2
37 -8 59 -16 59 -8 0 -10 -15 -6 -53z"/>
<path d="M820 2366 c13 -16 12 -20 -3 -31 -12 -8 -14 -15 -8 -20 6 -3 11 -15
11 -25 0 -25 19 -36 33 -20 7 7 7 10 1 7 -5 -3 -15 7 -21 24 -6 16 -8 29 -3
29 20 0 18 31 -3 41 -20 11 -21 11 -7 -5z"/>
<path d="M947 2373 c-4 -3 -7 -13 -7 -22 1 -13 3 -13 11 2 11 19 8 33 -4 20z"/>
<path d="M975 2319 c0 -50 3 -59 18 -59 12 0 16 4 10 13 -4 6 -7 31 -5 53 1
26 -3 44 -11 47 -9 3 -12 -12 -12 -54z"/>
<path d="M1010 2374 c0 -3 7 -12 15 -20 13 -13 15 -13 15 -1 0 8 -7 17 -15 21
-8 3 -15 3 -15 0z"/>
<path d="M1135 2318 c0 -50 3 -58 19 -58 13 0 16 3 9 13 -6 6 -9 33 -7 58 1
30 -2 46 -9 46 -8 0 -12 -21 -12 -59z"/>
<path d="M1630 2363 c0 -13 4 -23 10 -23 5 0 20 -18 32 -40 13 -22 26 -40 31
-40 14 0 7 28 -13 52 -11 12 -29 34 -39 48 l-20 25 -1 -22z"/>
<path d="M1698 2343 c2 -18 5 -33 7 -33 2 0 5 15 7 33 2 20 -1 34 -7 34 -6 0
-9 -14 -7 -34z"/>
<path d="M2000 2361 c0 -25 6 -27 13 -6 4 8 2 17 -3 20 -6 4 -10 -3 -10 -14z"/>
<path d="M2039 2329 c2 -36 -1 -54 -10 -60 -10 -6 -5 -9 16 -9 17 0 25 4 20 8
-6 4 -10 29 -10 56 0 27 -5 51 -10 53 -6 2 -9 -18 -6 -48z"/>
<path d="M2070 2371 c0 -5 6 -14 14 -20 12 -10 13 -8 9 8 -5 21 -23 30 -23 12z"/>
<path d="M2310 2356 c0 -14 4 -26 9 -26 5 0 12 -16 16 -36 4 -23 10 -33 16
-27 6 6 3 27 -7 56 -18 54 -34 69 -34 33z"/>
<path d="M2385 2372 c-6 -4 -11 -31 -10 -59 0 -46 3 -53 20 -53 11 0 15 4 10
8 -13 9 -14 95 0 104 6 5 6 8 0 8 -5 0 -15 -4 -20 -8z"/>
<path d="M2698 2320 c-3 -53 -1 -60 16 -60 13 0 16 4 9 13 -14 18 -10 42 7 42
9 0 16 -11 18 -27 2 -17 9 -28 19 -28 13 0 13 3 3 15 -7 8 -9 15 -5 15 4 0 1
7 -6 17 -11 13 -11 17 -1 20 17 6 15 40 -4 47 -25 10 -29 7 -11 -6 11 -9 14
-18 8 -27 -11 -18 -43 -7 -35 13 3 8 1 17 -4 20 -6 4 -12 -18 -14 -54z"/>
<path d="M2925 2366 c23 -17 26 -83 5 -97 -10 -6 -11 -9 -3 -9 7 0 19 13 27
28 13 25 13 32 -1 60 -9 18 -23 32 -31 32 -13 0 -12 -3 3 -14z"/>
<path d="M3108 2362 c26 -26 29 -27 29 -7 0 8 -4 15 -8 15 -4 0 -15 3 -25 7
-14 5 -13 2 4 -15z"/>
<path d="M3432 2336 c3 -24 1 -51 -4 -60 -7 -12 -5 -16 7 -16 12 0 15 12 15
60 0 37 -4 60 -11 60 -7 0 -9 -16 -7 -44z"/>
<path d="M3557 2363 c3 -7 8 -13 12 -13 4 0 17 -18 30 -40 31 -56 38 -56 40 1
0 28 3 54 5 58 3 4 0 8 -7 8 -8 0 -11 -13 -9 -39 2 -21 2 -38 -1 -38 -3 0 -15
17 -27 38 -20 36 -55 56 -43 25z"/>
<path d="M3770 2379 c47 -39 47 -39 47 -24 0 8 -4 15 -8 15 -4 0 -16 3 -26 7
-10 3 -16 4 -13 2z"/>
<path d="M611 2351 c-7 -12 -10 -25 -7 -29 3 -3 6 1 6 9 1 10 4 9 11 -4 5 -9
7 -22 4 -27 -3 -6 -1 -10 5 -10 7 0 10 -7 6 -15 -4 -10 1 -15 14 -15 16 0 18
3 10 18 -6 9 -16 35 -24 57 -13 39 -13 39 -25 16z"/>
<path d="M1467 2351 c-3 -12 -1 -21 4 -21 5 0 9 -9 9 -19 0 -11 5 -23 10 -26
6 -4 8 -11 5 -16 -4 -5 4 -9 17 -9 13 0 18 3 12 8 -6 4 -17 25 -24 47 -16 51
-26 62 -33 36z"/>
<path d="M1832 2315 l-20 -55 22 1 c11 0 15 3 9 6 -22 8 -14 23 13 23 19 0 25
-4 20 -15 -4 -11 1 -15 17 -15 12 0 17 4 12 8 -6 4 -17 26 -25 50 -7 24 -17
45 -20 47 -4 3 -16 -20 -28 -50z m38 -7 c0 -5 -7 -8 -15 -8 -17 0 -18 2 -9 25
5 13 8 14 15 3 5 -7 9 -16 9 -20z"/>
<path d="M2540 2363 c0 -6 -3 -20 -6 -30 -4 -13 -3 -14 4 -5 7 11 10 9 15 -7
2 -11 0 -22 -7 -25 -6 -2 -3 -5 7 -5 20 -1 23 -17 5 -24 -7 -3 0 -6 15 -6 27
-1 28 0 13 21 -9 12 -16 30 -16 38 0 19 -29 61 -30 43z"/>
<path d="M2879 2343 c-12 -32 -2 -74 21 -81 13 -5 13 -3 1 11 -9 11 -12 31 -8
57 6 47 1 51 -14 13z"/>
<path d="M3059 2346 c-14 -30 -5 -72 17 -80 14 -5 15 -4 4 9 -7 8 -10 32 -8
55 4 46 2 49 -13 16z"/>
<path d="M3253 2314 c-17 -42 -18 -54 -7 -54 8 0 11 6 8 15 -4 8 -1 15 6 15 6
0 8 4 5 10 -3 5 -1 18 4 27 10 17 11 16 12 -2 1 -11 1 -23 0 -27 0 -5 4 -8 10
-8 6 0 9 -7 5 -15 -3 -10 1 -15 13 -15 18 0 18 1 0 37 -10 21 -19 43 -19 50 0
32 -18 16 -37 -33z"/>
<path d="M3746 2355 c-6 -17 15 -41 44 -50 21 -7 27 -30 10 -38 -6 -3 -5 -4 2
-3 7 1 14 12 16 24 3 16 -5 26 -31 38 -22 11 -33 22 -30 30 3 8 3 14 0 14 -3
0 -7 -7 -11 -15z"/>
<path d="M3561 2324 c0 -11 3 -14 6 -6 3 7 2 16 -1 19 -3 4 -6 -2 -5 -13z"/>
<path d="M1628 2295 c-2 -21 0 -35 7 -35 7 0 9 14 7 35 -2 19 -5 35 -7 35 -2
0 -5 -16 -7 -35z"/>
<path d="M1450 2308 c0 -9 -7 -24 -16 -32 -14 -15 -13 -16 6 -16 13 0 19 4 14
11 -3 6 -2 14 4 18 7 4 8 12 2 21 -8 13 -10 12 -10 -2z"/>
<path d="M582 2285 c-10 -23 -9 -25 11 -25 18 0 19 2 7 10 -12 8 -13 11 -1 19
7 5 9 11 4 14 -6 4 -15 -5 -21 -18z"/>
<path d="M2512 2285 c-9 -19 -9 -25 1 -25 6 0 13 11 13 25 2 31 0 31 -14 0z"/>
<path d="M1260 2283 c0 -11 7 -20 15 -20 12 0 12 3 3 16 -7 9 -14 18 -15 20
-2 2 -3 -5 -3 -16z"/>
<path d="M3557 2280 c-3 -12 0 -20 8 -20 8 0 11 8 8 20 -3 11 -7 20 -8 20 -1
0 -5 -9 -8 -20z"/>
<path d="M3743 2282 c0 -10 9 -19 18 -19 16 -2 17 0 1 18 -20 23 -21 23 -19 1z"/>
<path d="M2306 2275 c-3 -9 0 -15 9 -15 9 0 12 6 9 15 -4 8 -7 15 -9 15 -2 0
-5 -7 -9 -15z"/>
<path d="M3110 2270 c-9 -6 -10 -10 -3 -10 6 0 15 5 18 10 8 12 4 12 -15 0z"/>
<path d="M3593 2198 c-6 -7 -32 -52 -59 -101 -31 -55 -56 -89 -69 -92 -11 -2
-58 -7 -105 -11 -47 -3 -101 -8 -120 -9 -80 -8 -118 -5 -163 11 -48 17 -49 17
-129 -10 -44 -15 -87 -25 -96 -21 -26 10 -122 -6 -122 -20 0 -22 31 -40 64
-36 l31 3 -21 -24 c-12 -12 -31 -41 -43 -62 -19 -37 -19 -41 -4 -58 22 -24 38
-23 50 5 17 37 62 85 110 118 34 24 62 33 120 40 86 11 103 4 103 -45 -1 -97
-180 -335 -290 -383 -90 -40 -111 -73 -73 -115 16 -17 17 -17 47 5 85 64 207
59 270 -11 18 -21 18 -24 2 -66 -11 -29 -38 -64 -75 -99 -98 -90 -315 -189
-418 -189 -47 0 -51 -2 -43 -18 47 -87 318 -6 511 152 55 45 83 98 82 155 -1
55 -31 96 -105 144 -32 20 -59 41 -59 44 -1 4 17 25 38 48 126 134 192 296
149 362 -9 14 -15 26 -14 26 2 1 17 3 33 4 206 22 256 27 260 24 2 -2 -23 -59
-56 -125 -32 -67 -78 -170 -102 -230 -40 -98 -119 -340 -133 -404 -37 -173
-44 -311 -19 -360 16 -31 65 -70 88 -70 24 0 38 26 31 54 -6 25 -7 26 -30 11
-22 -14 -23 -14 -30 20 -9 52 2 165 30 290 46 207 179 538 330 822 4 6 151 14
264 14 197 -1 233 -8 162 -31 -58 -19 -51 -34 12 -26 90 12 113 63 40 87 -34
11 -372 7 -430 -5 -20 -4 -21 -3 -11 17 7 12 24 40 40 62 42 62 44 78 10 98
-35 20 -45 21 -58 5z m-179 -404 c-37 -79 -52 -123 -48 -139 3 -12 1 -26 -4
-29 -6 -4 -8 3 -6 16 3 13 -7 -1 -21 -31 -14 -29 -25 -59 -25 -65 0 -7 -4 -16
-9 -21 -4 -6 -25 -64 -46 -130 -20 -66 -41 -131 -45 -145 -8 -21 -33 -135 -45
-196 -2 -10 -4 -34 -4 -51 -1 -18 -5 -33 -10 -33 -10 0 -7 83 5 133 4 18 7 37
6 43 -1 7 3 25 9 40 7 16 14 44 16 63 2 18 19 72 37 120 19 47 44 115 56 151
12 35 44 112 72 170 27 58 55 116 61 130 17 36 48 90 52 90 2 0 -21 -52 -51
-116z m-23 -101 c-12 -20 -14 -14 -5 12 4 9 9 14 11 11 3 -2 0 -13 -6 -23z
m-44 -100 c-16 -52 -86 -245 -90 -250 -7 -7 16 81 36 132 35 95 52 135 55 135
3 0 2 -8 -1 -17z m-347 -18 c0 -11 -61 -65 -72 -65 -7 0 3 16 22 35 31 32 50
43 50 30z m231 -330 c-11 -33 -20 -54 -20 -47 -1 20 34 134 36 120 2 -7 -6
-40 -16 -73z m-24 -87 c-3 -8 -6 -5 -6 6 -1 11 2 17 5 13 3 -3 4 -12 1 -19z
m-243 -29 c-58 -65 -300 -163 -343 -139 -12 7 -9 10 14 15 17 4 45 11 64 16
19 4 38 6 42 3 4 -2 10 0 14 6 3 5 23 14 45 20 21 6 69 31 107 55 77 51 84 54
57 24z"/>
<path d="M3745 1916 c-28 -26 -95 -116 -95 -128 0 -14 31 -37 44 -32 16 6 96
137 96 158 0 26 -18 27 -45 2z"/>
<path d="M1704 1723 c-80 -138 -184 -383 -184 -437 0 -13 9 -35 21 -50 23 -29
42 -23 55 16 7 22 78 129 129 194 39 50 145 157 150 152 2 -2 7 -30 10 -63 12
-118 42 -181 102 -220 17 -11 34 -28 36 -37 8 -28 44 -21 79 15 18 18 63 70
99 117 60 79 181 194 167 160 -4 -8 -20 -47 -37 -86 -46 -107 -49 -142 -14
-183 23 -27 36 -34 62 -33 67 2 164 70 251 177 47 58 53 81 10 40 -16 -16 -30
-25 -30 -21 0 4 -32 -19 -71 -50 -86 -68 -146 -104 -178 -104 -21 0 -23 3 -18
35 3 20 22 78 41 130 39 103 45 149 21 159 -8 3 -20 17 -26 30 -7 14 -24 30
-40 36 -51 22 -99 -19 -211 -183 -68 -99 -108 -137 -144 -137 -31 0 -41 26
-50 127 -9 107 -40 162 -82 149 -19 -7 -140 -127 -180 -181 -22 -29 -23 -29
-16 -5 3 14 31 75 62 137 50 100 55 114 44 137 -6 14 -16 26 -21 26 -5 0 -22
-21 -37 -47z m612 -100 c-3 -10 -30 -43 -58 -73 -29 -30 -64 -69 -78 -85 -28
-34 -59 -58 -45 -34 47 76 74 112 122 162 56 57 70 65 59 30z"/>
<path d="M752 1623 c-40 -31 -70 -58 -68 -60 5 -6 115 77 135 101 21 25 12 19
-67 -41z"/>
<path d="M3575 1625 c-42 -71 -95 -209 -109 -285 l-14 -70 30 -25 c61 -51 129
-23 233 96 98 113 180 259 145 259 -3 0 -33 -37 -65 -82 -70 -95 -198 -228
-242 -251 -29 -15 -31 -15 -36 2 -7 29 35 148 91 255 29 53 52 104 52 111 0
14 -29 35 -49 35 -6 0 -22 -20 -36 -45z m259 -100 c-9 -14 -18 -25 -21 -25 -5
0 5 18 20 38 17 22 18 13 1 -13z"/>
</g>
</svg>
